<svg width="18" height="32" viewBox="0 0 18 32" fill="none" xmlns="http://www.w3.org/2000/svg">
<g clip-path="url(#clip0_5_7)">
<path d="M0 0L6.33467 17.9493V17.94L6.836 19.3533C9.62 27.232 11.1173 31.456 11.1253 31.4653C11.1333 31.4747 11.552 31.492 12.0587 31.5187C13.6 31.5853 15.512 31.7587 16.9613 31.932C17.124 31.9587 17.3107 31.9733 17.5 31.9733L17.6067 31.972H17.6013L11.32 14.156L10.7387 12.516L7.508 3.38133C6.89467 1.648 6.37467 0.170667 6.348 0.114667L6.30933 0.00133333H0.008L0 0Z" fill="black"/>
<path d="M11.348 0.016L11.3347 7.092L11.324 14.168L10.7413 12.5253L9.98533 28.272C10.7253 30.3613 11.1213 31.472 11.1253 31.4813C11.1293 31.4907 11.552 31.5133 12.0587 31.5373C13.6013 31.604 15.512 31.7773 16.9667 31.9507C17.1293 31.9773 17.316 31.992 17.5067 31.992L17.612 31.9907H17.6067C17.624 31.9773 17.6333 24.7627 17.6293 15.9747L17.616 0.0133333H11.348V0.016ZM-1.81049e-06 0V15.9893C-1.81049e-06 24.7827 0.00933152 31.9853 0.0199982 31.992C0.0306649 31.9987 0.574665 31.952 1.22933 31.8773C1.884 31.8027 2.78933 31.704 3.24267 31.664C3.93333 31.5973 6 31.464 6.24 31.464C6.30933 31.464 6.31467 31.104 6.324 24.6893L6.33467 17.9147L6.84133 19.328L7.01467 19.8293L7.77467 4.09333L7.52133 3.36533L6.308 0H-0.00133514H-1.81049e-06Z" fill="black"/>
</g>
<defs>
<clipPath id="clip0_5_7">
<rect width="17.3333" height="32" fill="white"/>
</clipPath>
</defs>
</svg>
