<svg width="15" height="23" viewBox="0 0 15 23" fill="none" xmlns="http://www.w3.org/2000/svg">
<path d="M0.3125 2.875C0.3125 2.1125 0.615401 1.38124 1.15457 0.842068C1.69373 0.302901 2.425 0 3.1875 0L11.8125 0C12.575 0 13.3063 0.302901 13.8454 0.842068C14.3846 1.38124 14.6875 2.1125 14.6875 2.875V20.125C14.6875 20.8875 14.3846 21.6188 13.8454 22.1579C13.3063 22.6971 12.575 23 11.8125 23H3.1875C2.425 23 1.69373 22.6971 1.15457 22.1579C0.615401 21.6188 0.3125 20.8875 0.3125 20.125V2.875ZM8.9375 18.6875C8.9375 18.3063 8.78605 17.9406 8.51647 17.671C8.24688 17.4015 7.88125 17.25 7.5 17.25C7.11875 17.25 6.75312 17.4015 6.48353 17.671C6.21395 17.9406 6.0625 18.3063 6.0625 18.6875C6.0625 19.0687 6.21395 19.4344 6.48353 19.704C6.75312 19.9735 7.11875 20.125 7.5 20.125C7.88125 20.125 8.24688 19.9735 8.51647 19.704C8.78605 19.4344 8.9375 19.0687 8.9375 18.6875Z" fill="black"/>
</svg>
