<svg width="27" height="22" viewBox="0 0 27 22" fill="none" xmlns="http://www.w3.org/2000/svg">
<path d="M26.816 13.784C26.816 18.456 23.68 21.208 20.224 21.208C17.088 21.208 14.4 18.52 14.4 15.256C14.4 12.12 16.64 10.008 19.328 10.008C19.968 10.008 20.544 10.136 20.8 10.2C20.16 7.896 17.472 5.144 15.424 4.12L19.52 0.792C24 3.992 26.816 8.536 26.816 13.784ZM12.416 13.784C12.416 18.456 9.28 21.208 5.824 21.208C2.688 21.208 0 18.52 0 15.256C0 12.12 2.176 10.008 4.928 10.008C5.568 10.008 6.144 10.136 6.4 10.2C5.696 7.896 3.072 5.144 1.024 4.12L5.12 0.792C9.6 3.992 12.416 8.536 12.416 13.784Z" fill="#3973CA"/>
</svg>
