<svg width="37" height="25" viewBox="0 0 37 25" fill="none" xmlns="http://www.w3.org/2000/svg">
<path d="M3.85715 4.08036C3.85715 3.20657 4.20426 2.36857 4.82212 1.7507C5.43999 1.13283 6.27799 0.785721 7.15179 0.785721H29.8482C30.722 0.785721 31.56 1.13283 32.1779 1.7507C32.7957 2.36857 33.1429 3.20657 33.1429 4.08036V17.2589C33.1429 18.1327 32.7957 18.9707 32.1779 19.5886C31.56 20.2065 30.722 20.5536 29.8482 20.5536H7.15179C6.27799 20.5536 5.43999 20.2065 4.82212 19.5886C4.20426 18.9707 3.85715 18.1327 3.85715 17.2589V4.08036ZM2.02679 22.0179C1.73552 22.0179 1.45619 22.1336 1.25023 22.3395C1.04428 22.5455 0.928574 22.8248 0.928574 23.1161C0.928574 23.4073 1.04428 23.6867 1.25023 23.8926C1.45619 24.0986 1.73552 24.2143 2.02679 24.2143H34.9732C35.2645 24.2143 35.5438 24.0986 35.7498 23.8926C35.9557 23.6867 36.0714 23.4073 36.0714 23.1161C36.0714 22.8248 35.9557 22.5455 35.7498 22.3395C35.5438 22.1336 35.2645 22.0179 34.9732 22.0179H2.02679Z" fill="black"/>
</svg>
